<?xml version="1.0" encoding="UTF-8"?>
<svg id="Warstwa_1" data-name="Warstwa 1" xmlns="http://www.w3.org/2000/svg" xmlns:xlink="http://www.w3.org/1999/xlink" viewBox="0 0 2000 2000">
  <defs>
    <style>
      .cls-1 {
        fill: #fff;
      }

      .cls-2 {
        fill: #f15a24;
      }

      .cls-3 {
        fill: #006837;
      }

      .cls-4 {
        fill: #f7931e;
      }

      .cls-5 {
        fill: #3fa9f5;
      }

      .cls-6 {
        fill: #22b573;
      }

      .cls-7 {
        fill: none;
      }

      .cls-8 {
        fill: #ed1c24;
      }

      .cls-9 {
        fill: #00a99d;
      }

      .cls-10 {
        fill: #fbb03b;
      }
    </style>
    <symbol id="LOGO_KŁAK" data-name="LOGO KŁAK" viewBox="0 0 1775 1059.45">
      <g>
        <path class="cls-1" d="m450.45,804.46h-130.25L123.28,506.65c-3.3-4.99-3.12-11.52.44-16.32l192.33-259.13h118.63l-192.04,251.5c-3.72,4.87-3.9,11.58-.44,16.65l208.25,305.11Z"/>
        <path class="cls-1" d="m1131.53,231.2h-135.22l-178.36,573.26h113.66l107.41-403.66c6.24-23.46,39.52-23.48,45.8-.04l108.11,403.7h116.14l-177.53-573.26Z"/>
        <path class="cls-1" d="m1652.71,506.65l-196.92,297.81h-130.25l208.25-305.11c3.46-5.06,3.28-11.77-.44-16.65l-192.04-251.5h118.63l192.33,259.13c3.57,4.81,3.74,11.33.44,16.32Z"/>
        <path class="cls-7" d="m132.78,369.27s-8.68-.17-22.35-.38"/>
        <line class="cls-7" x1="112.71" y1="464.08" x2="110.43" y2="464.08"/>
        <path class="cls-3" d="m10,227.05h91.4c5.52,0,10,4.48,10,10v82.44H0v-82.44C0,231.53,4.48,227.05,10,227.05Z"/>
        <path class="cls-6" d="m10,295.79h91.4c5.52,0,10,4.48,10,10v87.18H0v-87.18C0,300.27,4.48,295.79,10,295.79Z"/>
        <path class="cls-9" d="m10,371.64h91.4c5.52,0,10,4.48,10,10v202.12H0v-202.12C0,376.12,4.48,371.64,10,371.64Z"/>
        <rect class="cls-5" x="0" y="475.93" width="111.4" height="438.5" rx="10" ry="10"/>
        <path class="cls-5" d="m238.63,891.68c15.27,13.44,21.06,34.21,9.76,50.42-11.3,16.21-35.87,22.21-50.68,8.27-11.51-10.82-12.44-31.3-49.67-75.38,0,0,58.41-11.64,90.59,16.69Z"/>
        <path class="cls-5" d="m112.53,983.71c5.01,10.89,15.24,17.77,25.42,14.31,10.18-3.46,16.79-16.11,11.45-26.84-4.15-8.33-14.89-12.45-33.13-40.98,0,0-14.31,30.56-3.75,53.5Z"/>
        <path class="cls-5" d="m231.29,1022.66c1.06,15.23-4.78,30.48-17.9,35.34-13.12,4.86-24.86-2.98-25.26-17.39-.72-26.17,6.5-46.96-7.81-67.03,0,0,48.19,9.29,50.97,49.07Z"/>
        <path class="cls-8" d="m1663.6,706.97h111.4v82.44c0,5.52-4.48,10-10,10h-91.4c-5.52,0-10-4.48-10-10v-82.44h0Z"/>
        <path class="cls-2" d="m1663.6,633.49h111.4v87.18c0,5.52-4.48,10-10,10h-91.4c-5.52,0-10-4.48-10-10v-87.18h0Z"/>
        <path class="cls-4" d="m1663.6,442.7h111.4v202.12c0,5.52-4.48,10-10,10h-91.4c-5.52,0-10-4.48-10-10v-202.12h0Z"/>
        <rect class="cls-10" x="1663.6" y="112.02" width="111.4" height="438.5" rx="10" ry="10"/>
        <path class="cls-10" d="m1583.22,4c-18.72-7.97-39.95-4.22-49.69,12.97-9.74,17.19-4.55,41.94,14.42,49.29,14.73,5.71,33.6-2.29,89.44,12.25,0,0-14.73-57.71-54.17-74.51Z"/>
        <path class="cls-10" d="m1554.66,157.48c-11.99.18-22.61-6.07-23.89-16.75-1.28-10.68,7.28-22.1,19.26-21.92,9.3.15,17.66,8.06,51.27,12.18,0,0-21.38,26.11-46.64,26.48Z"/>
        <path class="cls-10" d="m1468.25,67.18c-14.2,5.62-25.43,17.47-24.15,31.41,1.28,13.94,13.42,21.14,26.59,15.27,23.92-10.65,39.55-26.14,63.83-21.9,0,0-29.19-39.46-66.27-24.78Z"/>
        <path class="cls-1" d="m1040.56,684.52"/>
        <path class="cls-1" d="m594.44,714.28c-7.87,0-14.22-6.36-14.22-14.19v-385.01l-109.51,60.77v427.8h326.86l28.47-88.9-231.6-.47Zm-123.73-482.46v246.37l109.51-147.17v-99.2h-109.51Z"/>
        <path class="cls-1" d="m719.74,417.3c11.78,0,18.46,13.51,11.29,22.87l-174.54,228.01c-.95,1.24.02-152.27.02-152.27l69.12-92.87c2.68-3.61,6.91-5.73,11.41-5.73h82.69Z"/>
      </g>
    </symbol>
  </defs>
  <rect x="0" width="2000" height="2000"/>
  <use width="1775" height="1059.45" transform="translate(112.5 470.28)" xlink:href="#LOGO_KŁAK"/>
</svg>