<?xml version="1.0" encoding="UTF-8"?>
<svg id="Warstwa_2" data-name="Warstwa 2" xmlns="http://www.w3.org/2000/svg" viewBox="0 0 78.14 108">
  <defs>
    <style>
      .cls-1 {
        fill: #3fa9f5;
        stroke-width: 0px;
      }
    </style>
  </defs>
  <g id="Warstwa_1-2" data-name="Warstwa 1">
    <path class="cls-1" d="m41.14,0c1.11.14,2.22.25,3.32.43,14.44,2.36,24.69,10.28,30.58,23.6,3.84,8.68,3.93,17.7,1.26,26.78-2.22,7.52-5.6,14.53-9.49,21.29-7.01,12.19-15.41,23.38-24.57,34.02-2.16,2.51-4.26,2.51-6.42,0-10.38-12.1-19.86-24.85-27.3-39.01-3.4-6.48-6.39-13.15-7.74-20.39-2.64-14.23,1.39-26.39,11.85-36.34C18.81,4.5,26.3,1.29,34.74.24,35.46.15,36.19.08,36.92,0c1.41,0,2.81,0,4.22,0Zm-2.23,58.78c10.65.19,19.57-8.57,19.77-19.42.2-10.82-8.52-19.74-19.46-19.94-10.68-.19-19.59,8.52-19.82,19.37-.23,10.86,8.49,19.79,19.51,19.99Z"/>
  </g>
</svg>